<svg width="24" height="24" viewBox="0 0 24 24" fill="none" xmlns="http://www.w3.org/2000/svg">
    <path d="M12 11.5C11.3078 11.5 10.6311 11.2947 10.0555 10.9101C9.47994 10.5256 9.03133 9.97894 8.76643 9.3394C8.50152 8.69985 8.43221 7.99612 8.56726 7.31719C8.7023 6.63825 9.03565 6.01461 9.52513 5.52513C10.0146 5.03565 10.6383 4.7023 11.3172 4.56726C11.9961 4.43221 12.6999 4.50152 13.3394 4.76643C13.9789 5.03133 14.5256 5.47994 14.9101 6.05551C15.2947 6.63108 15.5 7.30777 15.5 8C15.5 8.92826 15.1313 9.8185 14.4749 10.4749C13.8185 11.1313 12.9283 11.5 12 11.5ZM12 5.5C11.5056 5.5 11.0222 5.64663 10.6111 5.92133C10.2 6.19603 9.87952 6.58648 9.69031 7.0433C9.50109 7.50011 9.45158 8.00278 9.54804 8.48773C9.6445 8.97268 9.88261 9.41814 10.2322 9.76777C10.5819 10.1174 11.0273 10.3555 11.5123 10.452C11.9972 10.5484 12.4999 10.4989 12.9567 10.3097C13.4135 10.1205 13.804 9.80005 14.0787 9.38893C14.3534 8.97781 14.5 8.49446 14.5 8C14.5 7.33696 14.2366 6.70108 13.7678 6.23224C13.2989 5.7634 12.663 5.5 12 5.5Z" fill="#1998D5"/>
    <path d="M21 17V15.5C21 14.7044 20.6839 13.9413 20.1213 13.3787C19.5587 12.8161 18.7957 12.5 18 12.5C17.2044 12.5 16.4413 12.8161 15.8787 13.3787C15.3161 13.9413 15 14.7044 15 15.5V17C14.7348 17 14.4804 17.1054 14.2929 17.2929C14.1054 17.4804 14 17.7348 14 18V21C14 21.2652 14.1054 21.5196 14.2929 21.7071C14.4804 21.8946 14.7348 22 15 22H21C21.2652 22 21.5196 21.8946 21.7071 21.7071C21.8946 21.5196 22 21.2652 22 21V18C22 17.7348 21.8946 17.4804 21.7071 17.2929C21.5196 17.1054 21.2652 17 21 17ZM18 13.5C18.5304 13.5 19.0391 13.7107 19.4142 14.0858C19.7893 14.4609 20 14.9696 20 15.5V17H16V15.5C16 14.9696 16.2107 14.4609 16.5858 14.0858C16.9609 13.7107 17.4696 13.5 18 13.5ZM21 21H15V18H21V21Z" fill="#1998D5"/>
    <path d="M22 12C22 10.0222 21.4135 8.08879 20.3147 6.4443C19.2159 4.79981 17.6541 3.51809 15.8268 2.76121C13.9996 2.00433 11.9889 1.8063 10.0491 2.19215C8.10929 2.578 6.32746 3.53041 4.92894 4.92894C3.53041 6.32746 2.578 8.10929 2.19215 10.0491C1.8063 11.9889 2.00433 13.9996 2.76121 15.8268C3.51809 17.6541 4.79981 19.2159 6.4443 20.3147C8.08879 21.4135 10.0222 22 12 22C12.1326 22 12.2598 21.9473 12.3536 21.8536C12.4473 21.7598 12.5 21.6326 12.5 21.5C12.5 21.3674 12.4473 21.2402 12.3536 21.1465C12.2598 21.0527 12.1326 21 12 21C10.7017 20.9986 9.41911 20.7164 8.24017 20.1727C7.06123 19.629 6.01389 18.8366 5.17 17.85C5.88233 16.6761 6.88483 15.7052 8.08103 15.0309C9.27723 14.3567 10.6269 14.0016 12 14C12.4456 14.001 12.8903 14.0378 13.33 14.11C13.4626 14.1325 13.5987 14.1015 13.7085 14.0237C13.8182 13.9458 13.8925 13.8276 13.915 13.695C13.9375 13.5624 13.9065 13.4263 13.8287 13.3166C13.7508 13.2068 13.6326 13.1325 13.5 13.11C13.0037 13.0333 12.5021 12.9965 12 13C10.5222 13.0022 9.06762 13.3683 7.76481 14.0659C6.462 14.7635 5.35102 15.7712 4.53 17C3.52975 15.5247 2.99663 13.7825 3 12C3 9.61306 3.94822 7.32387 5.63604 5.63604C7.32387 3.94822 9.61306 3 12 3C14.387 3 16.6761 3.94822 18.364 5.63604C20.0518 7.32387 21 9.61306 21 12C21 12.1326 21.0527 12.2598 21.1465 12.3536C21.2402 12.4473 21.3674 12.5 21.5 12.5C21.6326 12.5 21.7598 12.4473 21.8536 12.3536C21.9473 12.2598 22 12.1326 22 12Z" fill="#1998D5"/>
</svg>
