<svg width="24" height="24" viewBox="0 0 24 24" fill="none" xmlns="http://www.w3.org/2000/svg">
<path fill-rule="evenodd" clip-rule="evenodd" d="M6.34323 6.34317C6.10304 6.58337 6.10304 6.97326 6.34323 7.21346L11.1298 12L6.34323 16.7866C6.10304 17.0268 6.10304 17.4167 6.34323 17.6569C6.58343 17.8971 6.97332 17.8971 7.21352 17.6569L12.0001 12.8703L16.7867 17.6569C17.0269 17.8971 17.4167 17.8971 17.6569 17.6569C17.8971 17.4167 17.8971 17.0268 17.6569 16.7866L12.8704 12L17.6569 7.21346C17.8971 6.97326 17.8971 6.58337 17.6569 6.34317C17.4167 6.10298 17.0269 6.10298 16.7867 6.34317L12.0001 11.1297L7.21352 6.34317C6.97332 6.10298 6.58343 6.10298 6.34323 6.34317Z" fill="#424242"/>
</svg>
