<svg width="25" height="24" viewBox="0 0 25 24" fill="none" xmlns="http://www.w3.org/2000/svg">
<path fill-rule="evenodd" clip-rule="evenodd" d="M13.2823 16.9414C13.2823 17.5015 12.8258 17.956 12.2632 17.956C11.7007 17.956 11.2441 17.5015 11.2441 16.9414C11.2441 16.3813 11.7007 15.9267 12.2632 15.9267C12.8258 15.9267 13.2823 16.3813 13.2823 16.9414ZM12.7728 14.9121H11.7537L11.2441 9.83878H13.2823L12.7728 14.9121ZM12.2632 4.82638L20.7217 19.9853H3.80474L12.2632 4.82638ZM12.2632 3C12.1532 3.01319 12.0614 3.08422 12.0197 3.18061L2.31687 20.5536C2.18438 20.7971 2.31687 21 2.58183 21H21.9446C22.2299 21 22.342 20.7971 22.2096 20.5536L12.5078 3.18264C12.465 3.08422 12.3733 3.01319 12.2642 3H12.2632Z" fill="#D4231A"/>
</svg>
