<svg width="24" height="24" viewBox="0 0 24 24" fill="none" xmlns="http://www.w3.org/2000/svg">
<path d="M11.0644 16.0802C11.0644 16.6004 11.4861 17.0221 12.0063 17.0221C12.5265 17.0221 12.9482 16.6004 12.9482 16.0802V11.7382C12.9482 11.218 12.5265 10.7963 12.0063 10.7963C11.4861 10.7963 11.0644 11.218 11.0644 11.7382V16.0802Z" fill="#1998D5"/>
<path d="M12 9.86348C12.6604 9.86348 13.1556 9.38884 13.1556 8.6872C13.1556 7.8411 12.5365 7.46964 12 7.46964C11.4634 7.46964 10.8444 7.8411 10.8444 8.6872C10.8444 9.43012 11.3809 9.86348 12 9.86348Z" fill="#1998D5"/>
<path fill-rule="evenodd" clip-rule="evenodd" d="M4 12C4 16.4183 7.58172 20 12 20C16.4183 20 20 16.4183 20 12C20 7.58172 16.4183 4 12 4C7.58172 4 4 7.58172 4 12ZM18.8045 12C18.8045 15.7609 15.758 18.8097 12 18.8097C8.242 18.8097 5.19553 15.7609 5.19553 12C5.19553 8.23913 8.242 5.19033 12 5.19033C15.758 5.19033 18.8045 8.23913 18.8045 12Z" fill="#1998D5"/>
</svg>
