<svg width="20" height="16" viewBox="0 0 20 16" fill="none" xmlns="http://www.w3.org/2000/svg">
<path fill-rule="evenodd" clip-rule="evenodd" d="M3.78565 15.465C3.77965 15.465 3.77265 15.465 3.76465 15.465C1.83165 15.465 0.264648 13.898 0.264648 11.965C0.264648 10.986 0.666648 10.101 1.31465 9.466L1.31565 9.465L6.28565 4.545C6.91965 3.916 7.79265 3.528 8.75665 3.528C9.07665 3.528 9.38565 3.571 9.68065 3.651L9.65565 3.645C9.87965 3.705 10.0426 3.906 10.0426 4.145C10.0426 4.43 9.81165 4.662 9.52565 4.662C9.47965 4.662 9.43465 4.656 9.39165 4.645L9.39565 4.646C9.19865 4.589 8.97165 4.557 8.73765 4.557C8.05265 4.557 7.43265 4.836 6.98565 5.286L2.01565 10.196C1.56265 10.649 1.28265 11.275 1.28265 11.966C1.28265 13.348 2.40365 14.469 3.78565 14.469C4.47665 14.469 5.10265 14.189 5.55565 13.736L10.5556 8.736C11.0056 8.288 11.2846 7.669 11.2846 6.984C11.2846 6.75 11.2516 6.523 11.1916 6.309L11.1956 6.326C11.1846 6.287 11.1786 6.242 11.1786 6.196C11.1786 5.911 11.4096 5.679 11.6956 5.679C11.9346 5.679 12.1356 5.841 12.1946 6.062L12.1956 6.066C12.2696 6.336 12.3126 6.645 12.3126 6.965C12.3126 7.929 11.9246 8.802 11.2956 9.436L6.29565 14.436C5.66365 15.072 4.78765 15.466 3.81965 15.466C3.80765 15.466 3.79565 15.466 3.78365 15.466L3.78565 15.465ZM11.5856 11.905C11.2646 11.904 10.9556 11.86 10.6606 11.779L10.6856 11.785C10.4616 11.725 10.2986 11.524 10.2986 11.285C10.2986 11 10.5296 10.768 10.8156 10.768C10.8616 10.768 10.9066 10.774 10.9496 10.785L10.9456 10.784C11.1426 10.841 11.3696 10.873 11.6036 10.873C12.2886 10.873 12.9086 10.594 13.3556 10.144L18.2856 5.234C18.7366 4.782 19.0146 4.158 19.0146 3.469C19.0146 2.78 18.7356 2.156 18.2846 1.704C17.8256 1.264 17.2016 0.994 16.5146 0.994C15.8276 0.994 15.2036 1.265 14.7436 1.705L14.7446 1.704L9.74465 6.654C9.29465 7.102 9.01565 7.721 9.01565 8.406C9.01565 8.64 9.04865 8.867 9.10865 9.081L9.10465 9.064C9.11465 9.102 9.11965 9.145 9.11965 9.189C9.11965 9.474 8.88865 9.704 8.60465 9.704C8.36465 9.704 8.16265 9.54 8.10565 9.317L8.10465 9.313C8.03065 9.043 7.98765 8.734 7.98765 8.414C7.98765 7.45 8.37565 6.577 9.00465 5.943L14.0046 0.993C14.6466 0.378 15.5186 0 16.4796 0C17.4406 0 18.3126 0.379 18.9556 0.995L18.9546 0.994C19.5876 1.627 19.9796 2.502 19.9796 3.469C19.9796 4.436 19.5876 5.311 18.9546 5.944L14.0046 10.894C13.3826 11.51 12.5296 11.894 11.5866 11.904H11.5846L11.5856 11.905Z" fill="#1998D5"/>
</svg>
