<svg width="24" height="24" viewBox="0 0 24 24" fill="none" xmlns="http://www.w3.org/2000/svg">
<path d="M17 2H7C6.73478 2 6.48043 2.10536 6.29289 2.29289C6.10536 2.48043 6 2.73478 6 3V21C6 21.2652 6.10536 21.5196 6.29289 21.7071C6.48043 21.8946 6.73478 22 7 22H17C17.2652 22 17.5196 21.8946 17.7071 21.7071C17.8946 21.5196 18 21.2652 18 21V3C18 2.73478 17.8946 2.48043 17.7071 2.29289C17.5196 2.10536 17.2652 2 17 2ZM12 21C11.8022 21 11.6089 20.9414 11.4444 20.8315C11.28 20.7216 11.1518 20.5654 11.0761 20.3827C11.0004 20.2 10.9806 19.9989 11.0192 19.8049C11.0578 19.6109 11.153 19.4327 11.2929 19.2929C11.4327 19.153 11.6109 19.0578 11.8049 19.0192C11.9989 18.9806 12.2 19.0004 12.3827 19.0761C12.5654 19.1518 12.7216 19.28 12.8315 19.4444C12.9414 19.6089 13 19.8022 13 20C13 20.2652 12.8946 20.5196 12.7071 20.7071C12.5196 20.8946 12.2652 21 12 21ZM17 18H7V3H17V18Z" fill="#1998D5"/>
</svg>
