<svg width="24" height="24" viewBox="0 0 24 24" fill="none" xmlns="http://www.w3.org/2000/svg">
<path d="M0 4C0 1.79086 1.79086 0 4 0H20C22.2091 0 24 1.79086 24 4V20C24 22.2091 22.2091 24 20 24H4C1.79086 24 0 22.2091 0 20V4Z" fill="#1998D5"/>
<path d="M20.9999 15.574V11.2368C20.9999 11.2362 20.9999 11.2355 20.9999 11.235C20.9985 9.98598 19.9179 8.96958 18.5888 8.96924C17.2607 8.96958 16.1798 9.98683 16.1793 11.2375V13.2983C16.1793 14.549 17.2606 15.5666 18.5895 15.5666C19.1615 15.5666 19.7066 15.3787 20.1406 15.0346V15.5793C20.1399 16.3699 19.4112 17.0378 18.5494 17.0378C18.0736 17.0378 17.5997 16.8342 17.3122 16.5066C17.3113 16.5055 17.3104 16.5047 17.3097 16.5037C17.2276 16.4107 17.1076 16.3575 16.9792 16.3575C16.7423 16.3575 16.5496 16.5389 16.5496 16.7619C16.5496 16.8542 16.5838 16.9446 16.6457 17.0165C16.6464 17.0175 16.6473 17.0185 16.648 17.0193C17.1013 17.5372 17.8121 17.8464 18.5494 17.8464C19.9006 17.8464 20.9999 16.8288 20.9999 15.5781C21.0001 15.5766 20.9999 15.5754 20.9999 15.574ZM20.1406 11.2375V13.2983C20.1406 14.1031 19.4449 14.758 18.5895 14.758C17.7341 14.758 17.0384 14.1033 17.0384 13.2978V11.2375C17.0384 10.4327 17.7341 9.77779 18.5895 9.77779C19.4449 9.77779 20.1406 10.4325 20.1406 11.2375Z" fill="white"/>
<path d="M12.5057 8.96918C11.1756 8.96918 10.0929 9.98728 10.0919 11.2388C10.0919 11.2395 10.0919 11.2402 10.0919 11.2408V14.9743C10.0919 15.1975 10.2848 15.3791 10.5221 15.3791C10.7593 15.3791 10.9523 15.1975 10.9523 14.9741V11.2408C10.9523 10.4348 11.649 9.77908 12.5055 9.77908C13.3619 9.77908 14.0587 10.4348 14.0587 11.2408V14.9743C14.0587 15.1975 14.2517 15.3791 14.4889 15.3791C14.7262 15.3791 14.9191 15.1975 14.9191 14.9743V11.2408V11.24C14.9189 9.98795 13.8361 8.96918 12.5057 8.96918Z" fill="white"/>
<path d="M6.566 9.38692C6.56456 9.3859 6.56312 9.38489 6.56168 9.38387C6.5615 9.3837 6.55394 9.37896 6.55376 9.37879C6.1475 9.11114 5.66996 8.96952 5.17873 8.96952C5.17855 8.96952 5.17837 8.96952 5.17819 8.96952C5.17603 8.96935 5.17261 8.96918 5.17045 8.96918C3.91333 8.96952 3.00054 9.92443 3.00018 11.2351C3 11.2369 3 11.239 3 11.2408V14.9743C3 15.1975 3.19296 15.3791 3.4302 15.3791C3.66744 15.3791 3.86041 15.1975 3.86041 14.9743V11.2408C3.86041 10.3528 4.37485 9.77908 5.17117 9.77908C5.49518 9.77908 5.8055 9.87191 6.06884 10.0478C6.07046 10.0489 6.07226 10.05 6.07388 10.0508C6.14516 10.096 6.22796 10.1197 6.31382 10.1197C6.55106 10.1197 6.7442 9.93815 6.7442 9.71471C6.7442 9.58529 6.67778 9.46298 6.566 9.38692Z" fill="white"/>
<path d="M8.22129 9.32758C7.98459 9.32758 7.79199 9.50883 7.79199 9.7316V14.9762C7.79199 15.199 7.98459 15.3803 8.22129 15.3803C8.45799 15.3803 8.65059 15.199 8.65059 14.9762V9.7316C8.65059 9.50867 8.45799 9.32758 8.22129 9.32758Z" fill="white"/>
<path d="M8.21426 7C7.84238 7 7.53979 7.28476 7.53979 7.63475C7.53979 7.98473 7.84238 8.26932 8.21426 8.26932C8.58614 8.26932 8.88854 7.98456 8.88854 7.63475C8.88872 7.28476 8.58614 7 8.21426 7Z" fill="#FFA80A"/>
</svg>
