<svg width="25" height="24" viewBox="0 0 25 24" fill="none" xmlns="http://www.w3.org/2000/svg">
<path d="M12.2649 5.31L8.2649 8V12.12H8.3249C8.6849 12.03 9.0749 11.95 9.6049 11.86V8.75L12.2649 7L14.9649 8.74V11.85C15.4949 11.94 15.8949 12.03 16.2349 12.11H16.2949V8L12.2649 5.31Z" fill="#1998D5"/>
<path d="M12.2649 16.37C12.9986 15.8311 13.6172 15.151 14.0843 14.3696C14.5514 13.5883 14.8576 12.7214 14.9849 11.82C14.086 11.6702 13.1761 11.5967 12.2649 11.6C11.3537 11.5975 10.4439 11.6711 9.5449 11.82C9.67217 12.7214 9.97836 13.5883 10.4455 14.3696C10.9126 15.151 11.5312 15.8311 12.2649 16.37Z" fill="#1998D5"/>
<path d="M16.3149 12.09C16.1649 13.2697 15.7519 14.4007 15.1063 15.3993C14.4607 16.398 13.599 17.239 12.5849 17.86L12.2649 18L11.9549 17.84C10.9506 17.2167 10.0982 16.377 9.45981 15.3822C8.82142 14.3874 8.41319 13.2627 8.2649 12.09C6.95534 12.4042 5.68923 12.8777 4.4949 13.5C4.84538 15.3075 5.81393 16.9368 7.23439 18.1083C8.65484 19.2798 10.4387 19.9205 12.2799 19.9205C14.1211 19.9205 15.905 19.2798 17.3254 18.1083C18.7459 16.9368 19.7144 15.3075 20.0649 13.5C18.8758 12.8816 17.6168 12.4082 16.3149 12.09Z" fill="#1998D5"/>
<path d="M12.2649 3C14.0449 3 15.785 3.52784 17.265 4.51677C18.7451 5.50571 19.8986 6.91131 20.5798 8.55585C21.261 10.2004 21.4392 12.01 21.092 13.7558C20.7447 15.5016 19.8875 17.1053 18.6289 18.364C17.3702 19.6226 15.7665 20.4798 14.0207 20.8271C12.2749 21.1743 10.4653 20.9961 8.82075 20.3149C7.17621 19.6337 5.7706 18.4802 4.78167 17.0001C3.79274 15.5201 3.2649 13.78 3.2649 12C3.2649 9.61305 4.21311 7.32387 5.90094 5.63604C7.58876 3.94821 9.87795 3 12.2649 3ZM12.2649 2C10.2871 2 8.35369 2.58649 6.70919 3.6853C5.0647 4.78412 3.78298 6.3459 3.0261 8.17317C2.26923 10.0004 2.07119 12.0111 2.45704 13.9509C2.8429 15.8907 3.7953 17.6725 5.19383 19.0711C6.59235 20.4696 8.37418 21.422 10.314 21.8079C12.2538 22.1937 14.2645 21.9957 16.0917 21.2388C17.919 20.4819 19.4808 19.2002 20.5796 17.5557C21.6784 15.9112 22.2649 13.9778 22.2649 12C22.2649 10.6868 22.0062 9.38642 21.5037 8.17317C21.0011 6.95991 20.2645 5.85752 19.336 4.92893C18.4074 4.00035 17.305 3.26375 16.0917 2.7612C14.8785 2.25866 13.5781 2 12.2649 2Z" fill="#1998D5"/>
</svg>
