<svg width="24" height="24" viewBox="0 0 24 24" fill="none" xmlns="http://www.w3.org/2000/svg">
<path fill-rule="evenodd" clip-rule="evenodd" d="M12 6C18 6 22 12 22 12C22 12 18 18 12 18C6 18 2 12 2 12C2 12 6 6 12 6ZM3.5 12.3C4 13 4.7 13.6 5.4 14.2C7.4 16 9.6 17 12 17C14.4 17 16.6 16 18.6 14.2C19.3 13.6 20 12.9 20.5 12.3C20.6 12.2 20.7 12.1 20.7 12C20.6 11.9 20.5 11.8 20.5 11.7C19.9 11 19.3 10.4 18.6 9.8C16.6 8 14.4 7 12 7C9.6 7 7.4 8 5.4 9.8C4.7 10.4 4 11 3.5 11.7C3.4 11.8 3.3 11.9 3.3 12C3.3 12.1 3.4 12.2 3.5 12.3ZM12 14C13.105 14 14 13.105 14 12C14 10.895 13.105 10 12 10C10.895 10 10 10.895 10 12C10 13.105 10.895 14 12 14Z" fill="#1998D5"/>
</svg>
